<svg width="47" height="28" viewBox="0 0 47 28" fill="white" xmlns="http://www.w3.org/2000/svg">
<g clip-path="url(#clip0)">
<path fill="white" d="M29.577 1.296C29.063 1.945 29.172 2.889 29.823 3.403L34.421 7.036L40.461 12.424L2.743 12.424C1.914 12.424 1.243 13.096 1.243 13.924C1.243 14.752 1.914 15.424 2.743 15.424L40.084 15.424L29.605 24.477C28.979 25.017 28.908 25.965 29.45 26.592C29.992 27.219 30.939 27.288 31.566 26.746L45.237 14.935C45.564 14.653 45.753 14.244 45.757 13.812C45.757 13.808 45.757 13.804 45.757 13.8C45.757 13.372 45.575 12.965 45.256 12.681L36.35 4.74L31.684 1.05C31.034 0.536 30.091 0.646002 29.577 1.296Z" />
</g>
<defs>
<clipPath id="clip0">
<rect width="27" height="46" fill="white" transform="translate(0.5 27.5) rotate(-90)"/>
</clipPath>
</defs>
</svg>
