<svg xmlns="http://www.w3.org/2000/svg" width="48" height="47" fill="none" viewBox="0 0 48 47">
    <path fill="#F1CAAD" fill-rule="evenodd" d="M45.807 27.012c0 .339.048.675.145 1 .242.82.769 1.516 1.488 1.966-.335 2.484-1.249 4.759-2.617 6.581-.39.521-.817 1.008-1.28 1.449l-.05.009-.047.008c-.641.123-1.296.188-1.948.188-.152 0-.31-.005-.48-.013l-.094-.006-.062-.004c-.108-.006-.215-.014-.322-.023l-.042-.005-.09-.01-.048-.005c-.098-.01-.196-.022-.292-.035-.062-.009-.123-.018-.185-.029-.096-.014-.19-.03-.284-.048-.061-.011-.122-.023-.182-.036-.096-.02-.19-.04-.285-.063l-.027-.006-.144-.035c-.101-.026-.2-.053-.3-.082l-.054-.014-.094-.028c-.109-.033-.227-.07-.357-.116 0 0-.068-.02-.082-.026-.15-.054-.3-.11-.444-.167l-.012-.006c-.134-.054-.273-.114-.412-.178-.02-.008-.04-.018-.06-.028l-.043-.02c-.106-.05-.21-.1-.315-.153l-.04-.022-.042-.021-.04-.021-.021-.012c-.09-.047-.18-.095-.267-.146-.042-.023-.083-.047-.125-.072-.094-.055-.187-.11-.28-.168l-.058-.037-.059-.038c-.095-.061-.19-.124-.283-.19 0 0-.08-.053-.1-.068-.105-.074-.209-.15-.31-.227l-.062-.047c-.254-.196-.5-.402-.731-.615-.14-.129-.285-.27-.444-.433l-.036-.037-.068-.07-.135-.146-.045-.05c-.031-.033-.063-.068-.093-.103-.05-.056-.099-.113-.147-.17l-.117-.139-.139-.171-.035-.046-.08-.104-.044-.057-.086-.115-.09-.125-.015-.022-.033-.046-.049-.069-.048-.069-.053-.08-.054-.081-.056-.086-.048-.073-.014-.021c-.07-.111-.138-.224-.205-.337l-.052-.092-.03-.052-.031-.056c-.031-.055-.061-.108-.09-.163l-.039-.073-.026-.05-.018-.034c-.037-.072-.074-.143-.11-.216l-.039-.08-.038-.081c-.036-.074-.07-.147-.103-.221l-.014-.03-.057-.131-.1-.235-.012-.034-.049-.12-.1-.264-.017-.05c-.011-.027-.022-.054-.031-.082-.035-.1-.067-.194-.097-.287l-.003-.01c.005.002.014 0 .022-.003l-.014.01.015-.01c.065-.016.227-.123.465-.303l14.22-9.25c.541 1.02.968 2.136 1.256 3.321l-.01.066-.01.055c-.837.666-1.317 1.664-1.317 2.744zm-14.14 3.064l-.465.303c.066-.016.227-.123.465-.303z" clip-rule="evenodd"/>
    <path fill="#E6DED4" fill-rule="evenodd" d="M32.143 30.146l14.727-9.295L48 20.14c-1.57-3.344-5.438-6.945-7.82-7.51-.511-.122-1.22-.239-1.709 0-.732-.476-3.172-1.666-6.833-.952-4.647.906-10.738 6.077-10.738 14.75 0 3.97 1.515 7.593 4.009 10.358 2.714 3.011 5.753 4.153 8.437 4.867l5.892-3.772-.006-.002c-.112-.033-.234-.071-.37-.116l-.084-.027c-.157-.054-.312-.11-.46-.168l-.012-.005c-.14-.055-.283-.115-.427-.179l-.062-.028-.045-.02c-.11-.05-.219-.101-.326-.155l-.085-.043-.042-.022c-.1-.05-.2-.102-.298-.157-.044-.023-.086-.048-.129-.072-.097-.056-.194-.112-.29-.17l-.12-.075c-.1-.061-.198-.124-.295-.19l-.103-.069c-.109-.074-.216-.15-.322-.228l-.064-.047c-.262-.197-.516-.405-.756-.618-.145-.13-.296-.272-.46-.436l-.037-.036-.07-.07c-.048-.049-.094-.099-.14-.148l-.047-.05c-.032-.034-.065-.068-.096-.103-.052-.056-.102-.114-.153-.172l-.12-.139c-.05-.057-.096-.114-.144-.172l-.12-.15-.134-.173-.109-.148-.035-.046-.1-.139-.11-.162-.059-.086-.063-.095c-.073-.111-.144-.224-.213-.338l-.054-.093-.03-.052c-.046-.076-.087-.147-.127-.22-.023-.04-.044-.083-.067-.124l-.019-.034-.113-.216c-.027-.054-.055-.109-.08-.163-.037-.074-.073-.147-.107-.222l-.074-.162c-.035-.078-.068-.157-.102-.235l-.014-.034-.05-.121c-.036-.089-.07-.177-.104-.266l-.018-.05-.031-.082c-.037-.101-.07-.195-.1-.289l-.004-.008.024-.004.481-.305z" clip-rule="evenodd"/>
    <path fill="#704B23" fill-rule="evenodd" d="M30.698 33.266c-.174 0-.353-.004-.549-.013l-.106-.007-.07-.004c-.123-.008-.246-.016-.368-.027l-.151-.016-.054-.006c-.112-.012-.223-.025-.334-.04-.07-.01-.141-.02-.211-.032-.109-.016-.217-.035-.324-.054l-.208-.04c-.109-.023-.217-.046-.325-.072l-.03-.007c-.056-.012-.11-.025-.165-.039-.115-.028-.229-.06-.343-.092L27.4 32.8l-.107-.03c-.124-.037-.258-.08-.408-.13l-.093-.03c-.172-.06-.343-.124-.506-.189l-.014-.006c-.153-.06-.312-.128-.47-.2l-.068-.031-.05-.024c-.12-.055-.24-.112-.359-.172l-.093-.048-.046-.025c-.11-.057-.22-.115-.329-.176l-.142-.081c-.107-.062-.213-.126-.319-.19l-.134-.084c-.109-.07-.217-.14-.324-.214l-.114-.077c-.119-.083-.237-.169-.353-.256l-.07-.052c-.29-.22-.57-.453-.834-.693-.16-.145-.326-.305-.507-.488l-.04-.04-.078-.08-.155-.165-.051-.055-.106-.116c-.057-.063-.113-.128-.168-.192-.045-.052-.09-.104-.133-.157-.053-.063-.106-.128-.158-.193l-.132-.168c-.05-.064-.1-.128-.148-.194l-.12-.164-.038-.053-.11-.155-.122-.182-.064-.096-.07-.106c-.08-.125-.159-.252-.235-.38l-.06-.104-.032-.058c-.05-.086-.096-.165-.14-.246l-.074-.139-.02-.039c-.043-.08-.084-.16-.125-.242l-.09-.182c-.04-.082-.078-.165-.116-.249l-.082-.181-.112-.265-.016-.037-.055-.136c-.04-.099-.077-.198-.113-.298l-.021-.055-.035-.093c-.041-.116-.16-.727-.195-.834.544.083 1.232.045 1.777.045 6.228 0 11.071-4.452 11.071-10.979 0-1.37-.442-3.19-.882-4.475 2.857 1.784 5.404 5.136 6.328 8.89l-.022.136c-.956.75-1.503 1.873-1.503 3.088 0 .382.055.76.164 1.127.276.922.878 1.706 1.698 2.213-.492 3.597-2.069 6.805-4.445 9.041-.767.153-1.552.23-2.333.23z" clip-rule="evenodd"/>
    <path fill="#C66E4E" fill-rule="evenodd" d="M35.986 8.696C33.694 3.559 28.719 0 22.948 0 15.005 0 8.565 6.744 8.565 15.063c0 5.422 2.736 10.175 6.84 12.828 2.115 1.366 4.593 2.176 7.247 2.232-.172-.156-.338-.318-.502-.483l-.117-.118-.178-.19c-.044-.048-.088-.095-.13-.143-.057-.063-.112-.126-.167-.19l-.132-.155-.156-.191-.131-.166c-.05-.064-.098-.127-.146-.192-.045-.06-.088-.12-.132-.181l-.134-.187c-.049-.071-.096-.144-.144-.216l-.11-.164c-.079-.124-.156-.25-.232-.376l-.091-.16c-.047-.08-.094-.162-.139-.244l-.093-.175-.124-.24-.088-.18c-.04-.081-.078-.163-.116-.246l-.08-.18c-.038-.086-.075-.173-.111-.26l-.071-.173c-.039-.097-.075-.196-.112-.294l-.055-.147c-.053-.148-.103-.297-.151-.448.563.092 1.139.142 1.726.142 6.097 0 11.04-5.177 11.04-11.562 0-1.448-.257-2.832-.72-4.11 2.9 1.73 5.128 4.886 6.069 8.719.135-.83.206-1.68.206-2.55 0-2.276-.483-4.433-1.346-6.367z" clip-rule="evenodd"/>
    <path fill="#BD9C79" fill-rule="evenodd" d="M5.458 34.204c-3.249-6.202-2.166-9.93 2.166-13.689 4.332-3.759 10.29-2.255 11.525-1.463 3.01 1.931 5.51 5.198 6.485 9.261 0 0-1.425 1.995-1.425 3.856 0 .414.059.824.174 1.22.29 1 .925 1.849 1.79 2.397-.52 3.895-2.181 7.37-4.684 9.79-6.144 1.392-13.323-4.043-16.03-11.372z" clip-rule="evenodd"/>
    <path fill="#154734" d="M16.655 43.282c0 1.467-1.565 2.656-3.496 2.656L1.974 47c1.398-.531 1.912-1.833 1.912-2.656C3.886 41.157 0 41.688 0 38.501c0-2.323 1.666-2.13 1.666-4.78 0-2.606-1.071-1.703-1.071-4.195 0-1.467 1.065-3.013 1.784-3.013l9.517-1.205c-.793.525-.793.966-.793 2.003v.035c0 2.125 2.221 2.125 2.776 4.78.555 2.657-1.953 3.719-1.419 5.844.535 2.124 4.195 2.124 4.195 5.312z"/>
    <path fill="#154734" d="M13.354 23.525c.467-.384 2.706-.628 3.301-.025.595.603.595 2.41 1.784 3.013 1.19.602 4.816-.789 5.949 0 1.132.788 1.19 1.807 1.19 1.807s2.881-4.44.906-7c-1.975-2.559-4.234-1.862-5.926-2.559-1.692-.697-2.755-2.404-5.03-2.957-2.276-.553-6.984.64-8.92 2.146-2.845 2.21-3.407 4.878-2.842 6.969l9.588-1.394z"/>
</svg>
