<?xml version="1.0" encoding="utf-8"?>
<!-- Generator: Adobe Illustrator 21.1.0, SVG Export Plug-In . SVG Version: 6.00 Build 0)  -->
<svg version="1.1"
	 id="svg2" xmlns:cc="http://creativecommons.org/ns#" xmlns:dc="http://purl.org/dc/elements/1.1/" xmlns:rdf="http://www.w3.org/1999/02/22-rdf-syntax-ns#" xmlns:svg="http://www.w3.org/2000/svg"
	 xmlns="http://www.w3.org/2000/svg" xmlns:xlink="http://www.w3.org/1999/xlink" x="0px" y="0px" width="595px" height="116px"
	 viewBox="0 0 595 116" style="enable-background:new 0 0 595 116;" xml:space="preserve">
<style type="text/css">
	.st0{fill:#64726A;}
</style>
<g id="Layer_1">
	<g id="g6">
		<path id="path8" class="st0" d="M0.3,0c43.2,0,86.1,0,129.4,0c0,38.7,0,77.2,0,116c-43.1,0-86.1,0-129.4,0
			C0.3,77.3,0.3,38.8,0.3,0z M70.5,80.6V36.2H54.8v55.2c0,0,25.9,0.5,37.9,0c10.8-0.3,18.1-6.6,20.9-17c3-11.2,3.1-22.5,0.5-33.8
			c-1.7-7.4-6-13.4-13.7-15.7c-3.8-1.1-7.7-1.7-11.6-1.7c-24.2-0.2-75.4,0-75.4,0v10.1c0,0,20.3,0,22.2,0c0,1.1,0,1.7,0,2.5
			c0,12.7,0,55.6,0,55.6h15.4V33.2c0,0,23.1,0,33.5,0c7.5,0,11.5,3.1,13.2,10.4c1.7,6.8,1.6,13.7,0.9,20.4
			c-0.3,3.6-1.4,7.2-2.5,10.7c-1.3,3.3-3.9,5.7-7.5,6.1C81.8,80.6,70.5,80.6,70.5,80.6L70.5,80.6z"/>
		<path id="path10" class="st0" d="M222.5,70.6c0-11.8,0-23.3,0-35.1c5.3,0,10.5,0,16,0c0,1.7,0,3.5,0,5.2c2.8-4.4,6.9-6.1,11.8-6.1
			c4.7,0,9.1,0.9,11.6,5.7c3.3-5,8.2-6,13.7-5.7c6.6,0.5,10.1,3.8,10.2,10.5c0.2,7.2,0.2,14.3,0.2,21.5c0,1.3,0,2.5,0,3.9
			c-5.7,0-11.2,0-17.1,0c0-0.6,0-1.4,0-2c0-6,0-11.9,0-18.1c0-0.6,0-1.3,0-1.7c-0.2-2.2-1.3-3.3-3.1-3.3c-1.7,0.2-2.8,1.1-2.8,3.5
			c0,6.4,0,12.7,0,19.2c0,0.8,0,1.6,0,2.5c-5.7,0-11.3,0-17.1,0c0-0.6,0-1.4,0-2c0-5.8,0-11.6,0-17.4c0-0.9,0-2-0.2-3
			c-0.2-1.7-1.1-2.7-2.8-2.7c-1.7,0-2.7,0.9-3,2.7c-0.2,0.9-0.2,1.9-0.2,2.8c0,6.4,0,13,0,19.8C233.8,70.6,228.2,70.6,222.5,70.6z"
			/>
		<path id="path12" class="st0" d="M159.2,70.7c2-5.7,3.9-11,5.8-16.3c3.5-9.9,6.9-19.6,10.4-29.6c0.5-1.3,0.9-1.7,2.4-1.7
			c7.7,0.2,15.6,0,23.4,0c5.7,15.7,11.2,31.4,17,47.5c-2,0-3.6,0-5.3,0c-4.1,0-8,0-12.1,0c-1.3,0-1.9-0.3-2.2-1.6
			c-0.6-2.5-1.4-5-2.4-7.4c-0.2-0.6-1.1-1.3-1.7-1.3c-4.2-0.2-8.5,0-12.7-0.2c-1.1,0-1.6,0.3-1.7,1.4c-0.6,2.5-1.4,5-2.2,7.5
			c-0.2,0.5-0.8,1.3-1.3,1.3C170.8,70.7,165.2,70.7,159.2,70.7z M182.9,48.9c3.6,0,6.9,0,10.5,0c-1.7-5.2-3.3-10.1-5-15.1
			c-0.2,0-0.3,0-0.5,0C186.2,38.7,184.6,43.7,182.9,48.9z"/>
		<path id="path14" class="st0" d="M549.8,70.7c-5.2,0-10.4,0-15.7,0c0-1.9,0-3.8,0-5.7c-0.3,0.2-0.5,0.2-0.6,0.2
			c-2.5,5.2-6.9,6.8-12.3,6.4c-5.5-0.3-9.7-2.8-12.1-7.9c-3-6.6-3.1-13.5-0.6-20.4c3.8-10.7,18.7-11.6,24.2-3.6c0-6.8,0-13.2,0-20
			c5.8,0,11.3,0,17.1,0C549.8,36.6,549.8,53.6,549.8,70.7z M533.6,52.7c-0.3-1.7-0.6-3.6-1.1-5.3c-0.5-1.6-1.9-2.4-3.6-2.4
			c-1.6,0-2.8,0.8-3.5,2.2c-1.3,3.5-1.3,7.1,0,10.5c0.6,1.6,1.9,2.4,3.6,2.4c1.7,0,3-0.9,3.5-2.5C533.1,56.1,533.3,54.4,533.6,52.7z
			"/>
		<path id="path16" class="st0" d="M485.5,48.1c-0.3-2.5-1.6-3.9-4.6-4.4c-4.9-0.9-9.4-0.2-14,1.7c-0.6,0.2-1.1,0.5-1.7,0.6
			c-0.2,0-0.3,0-0.5-0.2c0-2.8,0-5.7,0-8.5c0-0.5,0.6-1.1,1.1-1.3c8.6-2.4,17.3-2.7,25.8-0.2c6.3,1.7,9.4,6,9.6,12.6
			c0.2,7.2,0,14.6,0,22c-5.3,0-10.5,0-15.9,0c0-1.6,0-3,0-4.4c-0.3,0-0.5,0-0.5,0c-4.2,5.5-10.1,6.1-16.3,4.6
			c-4.1-0.9-7.2-3.5-7.7-8c-0.6-5,0.6-9.3,5.3-12.1c3.3-1.9,6.9-2.5,10.7-2.7C479.7,48.1,482.5,48.1,485.5,48.1L485.5,48.1z
			 M485.5,54.9c-2.5,0.5-5,0.6-7.2,1.3c-1.7,0.5-2.2,2-2,3.9c0.3,1.7,1.4,2.4,3,2.7C483.3,63,486,60,485.5,54.9z"/>
		<path id="path18" class="st0" d="M331,57.1c-8.3,0-16,0-23.7,0c-0.2,2.5,1.1,4.1,3.8,4.9c4.4,1.3,8.8,0.8,13-0.2
			c1.3-0.3,2.4-0.6,3.9-1.1c0,2.8,0,5.5,0,8.3c0,0.3-0.6,0.8-0.9,0.9c-8,1.9-16.2,2.7-24.2,0.5c-7.7-2.2-12.1-7.9-12.6-15.9
			c-0.2-1.7-0.2-3.6,0.2-5.3c0.8-6.3,4.2-10.7,10.2-12.9c5.3-1.9,11-2.2,16.5-1.3c6.4,1.1,10.7,5,12.3,11.3
			C330.4,49.7,330.5,53.3,331,57.1z M315.9,49.5c-0.2-2.4-0.2-4.7-2.2-6.3c-1.4-1.1-3-0.9-4.4,0c-2,1.6-2.4,3.8-2.4,6.3
			C309.9,49.5,312.7,49.5,315.9,49.5z"/>
		<path id="path20" class="st0" d="M594.6,56.9c-7.9,0-15.6,0-23.3,0c-0.2,2.5,1.3,4.6,4.2,4.9c3.1,0.5,6.3,0.5,9.4,0.3
			c2.4-0.2,4.6-0.9,7.1-1.4c0,2.8,0,5.7,0,8.8c-9,1.9-18.1,3.3-27,0c-6.6-2.4-9.9-7.5-10.5-14.5c-0.2-2.4-0.2-4.9,0.3-7.2
			c0.8-5.3,3.8-9.1,8.8-11.2c6.3-2.7,12.9-3.1,19.6-1.4s10.7,7.2,11.5,15.4C594.7,52.7,594.6,54.7,594.6,56.9z M571,49.4
			c3.1,0,6,0,9,0c-0.2-2.5,0-5.2-2.5-6.3c-1.1-0.6-3.1-0.5-4.2,0.2C571,44.5,570.8,47,571,49.4z"/>
		<path id="path22" class="st0" d="M416.6,35.4c2.8,0,5.2,0,7.7,0c0,3.5,0,6.6,0,10.1c-2.5,0-5,0-7.5,0c0,4.1-0.2,7.7,0,11.5
			c0.2,2.2,1.7,3.3,3.9,3.3c1.1,0,2.2-0.3,3.6-0.3c0,3.1,0,6.1,0,9.3c0,0.3-0.5,0.9-0.9,0.9c-4.7,1.4-9.4,2-14.3,1.3
			c-5.3-0.8-8.6-4.1-9.3-9.6c-0.5-4.4-0.3-9-0.3-13.4c0-0.8,0-1.7,0-2.8c-2,0-3.9,0-6,0c0-3.5,0-6.6,0-10.1c1.9,0,3.8,0,6,0
			c0-2.5,0-4.7,0-6.9c0-0.6,0.6-1.6,1.1-1.7c4.9-1.6,9.7-3,14.6-4.6c0.3-0.2,0.8-0.2,1.4-0.3C416.6,26.4,416.6,30.7,416.6,35.4
			L416.6,35.4z"/>
		<path id="path24" class="st0" d="M365.1,34.7c0,0.5,0.2,0.8,0.2,1.3c0,4.2,0,8.5,0,12.9c-0.8-0.2-1.3-0.2-1.9-0.3
			c-6-0.8-10.7,3.1-10.8,9.3c0,3.6,0,7.1,0,10.7c0,0.6,0,1.3,0,2c-5.8,0-11.3,0-17,0c0-11.6,0-23.3,0-35.1c5.2,0,10.5,0,15.9,0
			c0,2.4,0,4.7,0,7.1C354.6,37.1,358.3,33.5,365.1,34.7L365.1,34.7z"/>
		<path id="path26" class="st0" d="M446.5,70.6c-5.8,0-11.3,0-17,0c0-11.8,0-23.4,0-35.2c5.2,0,10.4,0,15.7,0c0,2.4,0,4.7,0,7.1
			c0.2,0.2,0.3,0.2,0.3,0.3c2.7-5.5,6.4-9.4,13.4-8c0,4.7,0,9.3,0,14c-0.6-0.2-1.3-0.2-1.7-0.3c-6-0.8-10.7,3.3-10.7,9.3
			c0,3.6,0,7.4,0,11C446.5,69.5,446.5,69.9,446.5,70.6L446.5,70.6z"/>
		<path id="path28" class="st0" d="M388.8,70.6c-5.7,0-11.2,0-16.8,0c0-11.8,0-23.4,0-35.2c5.7,0,11.2,0,16.8,0
			C388.8,47.2,388.8,58.8,388.8,70.6z"/>
		<path id="path30" class="st0" d="M371.8,31.3c0-3.8,0-7.5,0-11.5c5.5,0,11.2,0,16.8,0c0,3.8,0,7.5,0,11.5
			C383.2,31.3,377.7,31.3,371.8,31.3z"/>
	</g>
</g>
</svg>
