<svg fill="#7f58e2" id="Capa_1" enable-background="new 0 0 512 512" height="512" viewBox="0 0 512 512" width="512" xmlns="http://www.w3.org/2000/svg"><g><path d="m469.969 170.502c-.134-.137-.27-.268-.409-.396-2.35-2.205-11.287-9.635-43.504-35.803v-94.266c0-5.523-4.478-10-10-10h-123.191l-30.133-27.431c-3.812-3.472-9.638-3.474-13.455-.008l-30.21 27.439h-123.123c-5.522 0-10 4.477-10 10v93.842c-8.61 7.048-38.582 31.623-43.479 36.205-.148.134-.293.273-.434.418-9.719 9.95-15.071 23.084-15.071 36.985v251.507c0 14.603 5.822 28.205 16.392 38.301.018.017.035.033.053.049 9.913 9.452 22.925 14.656 36.652 14.656h351.887c13.727 0 26.739-5.205 36.651-14.656.018-.017.035-.033.053-.049 10.57-10.096 16.393-23.699 16.393-38.301v-251.507c-.001-13.901-5.353-27.035-15.072-36.985zm-43.913-10.423c7.702 6.271 16.283 13.277 22.273 18.227l-22.273 23.698zm35.731 33.113c2.128 4.408 3.253 9.271 3.253 14.295v251.507c0 5.694-1.424 11.144-4.107 15.967l-134.812-137.427zm-205.795-169.676 7.163 6.521h-14.342zm-150.048 26.521h300.111v173.247l-93.951 99.96-18.309-18.664c-1.881-1.917-4.453-2.997-7.139-2.997h-61.313c-2.686 0-5.258 1.08-7.139 2.997l-18.309 18.664-93.951-99.961zm-20 109.711v42.257l-22.322-23.75c5.267-4.418 13.008-10.842 22.322-18.507zm-38.984 299.246v-251.507c0-5.024 1.125-9.887 3.253-14.295l135.666 144.342-134.812 137.427c-2.683-4.823-4.107-10.273-4.107-15.967zm384.984 33.006h-351.887c-5.079 0-10-1.141-14.453-3.298l163.939-167.119h52.916l163.939 167.119c-4.454 2.157-9.375 3.298-14.454 3.298z"/><path d="m208.095 237.8c-.091 3.295 1.448 6.424 4.114 8.363 2.665 1.939 6.114 2.439 9.224 1.338l34.567-12.256 34.567 12.256c1.088.386 2.218.575 3.341.575 2.086 0 4.15-.653 5.883-1.913 2.666-1.939 4.205-5.068 4.114-8.363l-1.008-36.537 22.358-28.972c2.018-2.614 2.614-6.056 1.595-9.197-1.02-3.141-3.523-5.576-6.692-6.507l-35.185-10.341-20.732-30.162c-1.866-2.714-4.948-4.335-8.241-4.335s-6.375 1.622-8.241 4.335l-20.732 30.162-35.185 10.341c-3.169.931-5.673 3.366-6.692 6.507-1.02 3.141-.423 6.583 1.595 9.197l22.358 28.972zm27.979-73.367c2.205-.648 4.12-2.036 5.422-3.93l14.504-21.101 14.504 21.101c1.302 1.894 3.217 3.282 5.422 3.93l24.56 7.218-15.601 20.215c-1.408 1.825-2.143 4.081-2.079 6.385l.704 25.528-24.169-8.569c-1.081-.383-2.212-.575-3.342-.575s-2.261.191-3.342.575l-24.169 8.569.704-25.528c.063-2.305-.671-4.56-2.079-6.385l-15.601-20.215z"/><path d="m190.57 435.596c0 5.523 4.478 10 10 10h110.86c5.522 0 10-4.477 10-10s-4.478-10-10-10h-110.86c-5.522 0-10 4.477-10 10z"/></g></svg>