<?xml version="1.0" encoding="UTF-8"?>
<svg xmlns="http://www.w3.org/2000/svg" id="Icons" viewBox="0 0 74 74" width="512" height="512" fill="rgba(127, 88, 226, 0.7)"><path d="M71,44.53a1,1,0,0,1-1-1V30a1,1,0,0,1,2,0V43.53A1,1,0,0,1,71,44.53Z"/><path d="M71,72H3a1,1,0,0,1-1-1V30a1,1,0,0,1,2,0V70H70V60.47a1,1,0,0,1,2,0V71A1,1,0,0,1,71,72Z"/><path d="M71,54.47a1,1,0,0,1-1-1V50.53a1,1,0,0,1,2,0v2.94A1,1,0,0,1,71,54.47Z"/><path d="M71,31a1,1,0,0,1-.638-.23l-10-8.29a1,1,0,0,1,1.278-1.54l10,8.29A1,1,0,0,1,71,31Z"/><path d="M3,31a1,1,0,0,1-.623-1.783l10-7.95a1,1,0,0,1,1.244,1.566l-10,7.95A1,1,0,0,1,3,31Z"/><path d="M47.069,12a1,1,0,0,1-.621-.217L37,4.277l-9.448,7.506a1,1,0,1,1-1.244-1.566l10.07-8a1,1,0,0,1,1.244,0l10.07,8A1,1,0,0,1,47.069,12Z"/><path d="M37,55.318a13.4,13.4,0,0,1-8.547-3.067L2.364,30.772a1,1,0,1,1,1.272-1.544l26.09,21.48a11.44,11.44,0,0,0,14.547,0L70.364,29.228a1,1,0,1,1,1.272,1.544l-26.09,21.48A13.4,13.4,0,0,1,37,55.318Z"/><path d="M71,72H3a1,1,0,0,1-.607-1.794l25.82-19.741a1,1,0,0,1,1.215,1.589L5.954,70H68.046L44.572,52.054a1,1,0,0,1,1.215-1.589l25.82,19.741A1,1,0,0,1,71,72Z"/><path d="M61,38.41a1,1,0,0,1-1-1V12H14V37.41a1,1,0,0,1-2,0V11a1,1,0,0,1,1-1H61a1,1,0,0,1,1,1V37.41A1,1,0,0,1,61,38.41Z"/><path d="M42.87,38a1,1,0,0,1-.465-.115L37,35.044,31.6,37.885a1,1,0,0,1-1.45-1.054l1.032-6.018L26.8,26.551a1,1,0,0,1,.554-1.706l6.043-.878,2.7-5.475a1.04,1.04,0,0,1,1.792,0l2.7,5.475,6.043.878a1,1,0,0,1,.554,1.706l-4.373,4.262,1.032,6.018A1,1,0,0,1,42.87,38ZM37,32.914a.994.994,0,0,1,.465.115l4.077,2.143-.778-4.539a1,1,0,0,1,.287-.885l3.3-3.215-4.558-.662a1,1,0,0,1-.753-.548L37,21.194l-2.038,4.129a1,1,0,0,1-.753.548l-4.558.662,3.3,3.215a1,1,0,0,1,.287.885l-.778,4.539,4.077-2.143A.994.994,0,0,1,37,32.914Z"/></svg>
